<svg xmlns="http://www.w3.org/2000/svg" viewBox="0 0 440 234" width="440" height="234" font-family="monospace">
  <title>researchteam — Module Dependencies</title>
  <defs>
    <marker id="arrow" viewBox="0 0 10 10" refX="9" refY="5" markerWidth="7" markerHeight="7" orient="auto-start-reverse">
      <polygon points="0,0 10,5 0,10" fill="#8a8a8a"/>
    </marker>
  </defs>
  <path d="M244,127 L256,127 C292,127 292,93 328,93 L340,93" fill="none" stroke="#8a8a8a" stroke-width="1.5" marker-end="url(#arrow)"/>
  <path d="M244,127 L256,127 C292,127 292,141 328,141" fill="none" stroke="#8a8a8a" stroke-width="1.5" marker-end="url(#arrow)"/>
  <path d="M252,175 L256,175 C292,175 292,93 328,93 L340,93" fill="none" stroke="#8a8a8a" stroke-width="1.5" marker-end="url(#arrow)"/>
  <path d="M252,175 L256,175 C292,175 292,141 328,141" fill="none" stroke="#8a8a8a" stroke-width="1.5" marker-end="url(#arrow)"/>
  <path d="M64,117 C100,117 100,31 136,31" fill="none" stroke="#8a8a8a" stroke-width="1.5" marker-end="url(#arrow)"/>
  <path d="M64,117 C100,117 100,79 136,79 L140,79" fill="none" stroke="#8a8a8a" stroke-width="1.5" marker-end="url(#arrow)"/>
  <path d="M64,117 C100,117 100,127 136,127 L148,127" fill="none" stroke="#8a8a8a" stroke-width="1.5" marker-end="url(#arrow)"/>
  <path d="M64,117 C100,117 100,213 136,213 L256,213 C292,213 292,141 328,141" fill="none" stroke="#8a8a8a" stroke-width="1.5" marker-end="url(#arrow)"/>
  <path d="M64,117 C100,117 100,175 136,175 L140,175" fill="none" stroke="#8a8a8a" stroke-width="1.5" marker-end="url(#arrow)"/>
  <rect x="136" y="16" width="120" height="30" rx="6" fill="#e8eefb" stroke="#1b3fa0" stroke-width="1.5"/>
  <text x="196" y="36" font-size="13" text-anchor="middle" fill="#000000">researchteam</text>
  <rect x="140" y="64" width="112" height="30" rx="6" fill="#e8eefb" stroke="#1b3fa0" stroke-width="1.5"/>
  <text x="196" y="84" font-size="13" text-anchor="middle" fill="#000000">_doctor_cmd</text>
  <rect x="340" y="78" width="72" height="30" rx="6" fill="#e8eefb" stroke="#1b3fa0" stroke-width="1.5"/>
  <text x="376" y="98" font-size="13" text-anchor="middle" fill="#000000">_fetch</text>
  <rect x="148" y="112" width="96" height="30" rx="6" fill="#e8eefb" stroke="#1b3fa0" stroke-width="1.5"/>
  <text x="196" y="132" font-size="13" text-anchor="middle" fill="#000000">_init_cmd</text>
  <rect x="328" y="126" width="96" height="30" rx="6" fill="#e8eefb" stroke="#1b3fa0" stroke-width="1.5"/>
  <text x="376" y="146" font-size="13" text-anchor="middle" fill="#000000">_manifest</text>
  <rect x="140" y="160" width="112" height="30" rx="6" fill="#e8eefb" stroke="#1b3fa0" stroke-width="1.5"/>
  <text x="196" y="180" font-size="13" text-anchor="middle" fill="#000000">_update_cmd</text>
  <rect x="16" y="102" width="48" height="30" rx="6" fill="#e8eefb" stroke="#1b3fa0" stroke-width="1.5"/>
  <text x="40" y="122" font-size="13" text-anchor="middle" fill="#000000">cli</text>
</svg>
